<mxfile host="app.diagrams.net" modified="2022-05-26T05:21:26.560Z" agent="5.0 (Macintosh; Intel Mac OS X 10_15_6) AppleWebKit/605.1.15 (KHTML, like Gecko) Version/14.0.3 Safari/605.1.15" etag="5J1afushHFOz3hUacgcY" version="18.1.1" type="github" pages="3">
  <diagram id="UA7xoEQuPgeTtF2_1av7" name="Page-1">
    <mxGraphModel dx="946" dy="645" grid="1" gridSize="10" guides="1" tooltips="1" connect="1" arrows="1" fold="1" page="1" pageScale="1" pageWidth="827" pageHeight="1169" math="0" shadow="0">
      <root>
        <mxCell id="0" />
        <mxCell id="1" parent="0" />
        <mxCell id="hZlMEI1-733qGlmV8XFQ-25" value="" style="edgeStyle=orthogonalEdgeStyle;rounded=0;orthogonalLoop=1;jettySize=auto;html=1;" parent="1" source="hZlMEI1-733qGlmV8XFQ-14" target="hZlMEI1-733qGlmV8XFQ-23" edge="1">
          <mxGeometry relative="1" as="geometry" />
        </mxCell>
        <mxCell id="hZlMEI1-733qGlmV8XFQ-14" value="Client" style="swimlane;" parent="1" vertex="1">
          <mxGeometry x="340" y="230" width="110" height="180" as="geometry" />
        </mxCell>
        <mxCell id="hZlMEI1-733qGlmV8XFQ-18" value="email: string" style="text;html=1;align=center;verticalAlign=middle;resizable=0;points=[];autosize=1;strokeColor=none;fillColor=none;" parent="hZlMEI1-733qGlmV8XFQ-14" vertex="1">
          <mxGeometry y="50" width="80" height="20" as="geometry" />
        </mxCell>
        <mxCell id="hZlMEI1-733qGlmV8XFQ-19" value="phone: string" style="text;html=1;align=center;verticalAlign=middle;resizable=0;points=[];autosize=1;strokeColor=none;fillColor=none;" parent="hZlMEI1-733qGlmV8XFQ-14" vertex="1">
          <mxGeometry y="70" width="80" height="20" as="geometry" />
        </mxCell>
        <mxCell id="hZlMEI1-733qGlmV8XFQ-24" value="account: string" style="text;html=1;align=center;verticalAlign=middle;resizable=0;points=[];autosize=1;strokeColor=none;fillColor=none;" parent="hZlMEI1-733qGlmV8XFQ-14" vertex="1">
          <mxGeometry y="90" width="90" height="20" as="geometry" />
        </mxCell>
        <mxCell id="hZlMEI1-733qGlmV8XFQ-15" value="name: string" style="text;html=1;align=center;verticalAlign=middle;resizable=0;points=[];autosize=1;strokeColor=none;fillColor=none;" parent="hZlMEI1-733qGlmV8XFQ-14" vertex="1">
          <mxGeometry y="30" width="80" height="20" as="geometry" />
        </mxCell>
        <mxCell id="hZlMEI1-733qGlmV8XFQ-28" value="criteria: [{&lt;br&gt;&lt;span style=&quot;white-space: pre;&quot;&gt; &lt;/span&gt;type: string&lt;br&gt;&lt;span style=&quot;white-space: pre;&quot;&gt; &lt;/span&gt;values: any&lt;br&gt;}]" style="text;html=1;align=center;verticalAlign=middle;resizable=0;points=[];autosize=1;strokeColor=none;fillColor=none;" parent="hZlMEI1-733qGlmV8XFQ-14" vertex="1">
          <mxGeometry x="-15" y="110" width="100" height="60" as="geometry" />
        </mxCell>
        <mxCell id="_5W4sP8SLa1E4sF_RpFH-8" value="" style="edgeStyle=orthogonalEdgeStyle;rounded=0;orthogonalLoop=1;jettySize=auto;html=1;entryX=0.457;entryY=-0.017;entryDx=0;entryDy=0;entryPerimeter=0;" parent="1" source="hZlMEI1-733qGlmV8XFQ-23" target="hZlMEI1-733qGlmV8XFQ-26" edge="1">
          <mxGeometry relative="1" as="geometry">
            <mxPoint x="555" y="130" as="targetPoint" />
          </mxGeometry>
        </mxCell>
        <mxCell id="hZlMEI1-733qGlmV8XFQ-23" value="Adviser Personal Logic" style="shape=hexagon;perimeter=hexagonPerimeter2;whiteSpace=wrap;html=1;fixedSize=1;" parent="1" vertex="1">
          <mxGeometry x="335" y="50" width="120" height="80" as="geometry" />
        </mxCell>
        <mxCell id="_5W4sP8SLa1E4sF_RpFH-5" style="edgeStyle=orthogonalEdgeStyle;rounded=0;orthogonalLoop=1;jettySize=auto;html=1;entryX=1;entryY=0.5;entryDx=0;entryDy=0;" parent="1" source="hZlMEI1-733qGlmV8XFQ-26" target="hZlMEI1-733qGlmV8XFQ-14" edge="1">
          <mxGeometry relative="1" as="geometry">
            <Array as="points">
              <mxPoint x="570" y="350" />
              <mxPoint x="475" y="350" />
              <mxPoint x="475" y="320" />
            </Array>
          </mxGeometry>
        </mxCell>
        <mxCell id="hZlMEI1-733qGlmV8XFQ-26" value="" style="swimlane;startSize=0;" parent="1" vertex="1">
          <mxGeometry x="500" y="200" width="140" height="120" as="geometry">
            <mxRectangle x="540" y="30" width="50" height="40" as="alternateBounds" />
          </mxGeometry>
        </mxCell>
        <mxCell id="_5W4sP8SLa1E4sF_RpFH-4" value="available: boolean&lt;br&gt;error: string[]&lt;br&gt;state: string&lt;br&gt;account: string&lt;br&gt;" style="text;html=1;align=center;verticalAlign=middle;resizable=0;points=[];autosize=1;strokeColor=none;fillColor=none;" parent="hZlMEI1-733qGlmV8XFQ-26" vertex="1">
          <mxGeometry x="5" y="30" width="110" height="60" as="geometry" />
        </mxCell>
        <mxCell id="_5W4sP8SLa1E4sF_RpFH-1" value="search adviser" style="text;html=1;strokeColor=none;fillColor=none;align=center;verticalAlign=middle;whiteSpace=wrap;rounded=0;" parent="1" vertex="1">
          <mxGeometry x="395" y="160" width="60" height="30" as="geometry" />
        </mxCell>
        <mxCell id="_5W4sP8SLa1E4sF_RpFH-3" value="&lt;h1&gt;&lt;br&gt;&lt;/h1&gt;" style="text;html=1;strokeColor=none;fillColor=none;spacing=5;spacingTop=-20;whiteSpace=wrap;overflow=hidden;rounded=0;" parent="1" vertex="1">
          <mxGeometry x="50" y="240" width="190" height="120" as="geometry" />
        </mxCell>
      </root>
    </mxGraphModel>
  </diagram>
  <diagram id="mysCl_JFGngiW-3y19Zz" name="Entity">
    <mxGraphModel dx="946" dy="679" grid="1" gridSize="10" guides="1" tooltips="1" connect="1" arrows="1" fold="1" page="1" pageScale="1" pageWidth="827" pageHeight="1169" math="0" shadow="0">
      <root>
        <mxCell id="0" />
        <mxCell id="1" parent="0" />
        <mxCell id="5576LiCB81aaDjisihCb-40" value="Client" style="shape=table;startSize=30;container=1;collapsible=1;childLayout=tableLayout;fixedRows=1;rowLines=0;fontStyle=1;align=center;resizeLast=1;" parent="1" vertex="1">
          <mxGeometry x="610" y="115" width="180" height="185" as="geometry" />
        </mxCell>
        <mxCell id="5576LiCB81aaDjisihCb-41" value="" style="shape=tableRow;horizontal=0;startSize=0;swimlaneHead=0;swimlaneBody=0;fillColor=none;collapsible=0;dropTarget=0;points=[[0,0.5],[1,0.5]];portConstraint=eastwest;top=0;left=0;right=0;bottom=1;" parent="5576LiCB81aaDjisihCb-40" vertex="1">
          <mxGeometry y="30" width="180" height="30" as="geometry" />
        </mxCell>
        <mxCell id="5576LiCB81aaDjisihCb-42" value="PK" style="shape=partialRectangle;connectable=0;fillColor=none;top=0;left=0;bottom=0;right=0;fontStyle=1;overflow=hidden;" parent="5576LiCB81aaDjisihCb-41" vertex="1">
          <mxGeometry width="30" height="30" as="geometry">
            <mxRectangle width="30" height="30" as="alternateBounds" />
          </mxGeometry>
        </mxCell>
        <mxCell id="5576LiCB81aaDjisihCb-43" value="id" style="shape=partialRectangle;connectable=0;fillColor=none;top=0;left=0;bottom=0;right=0;align=left;spacingLeft=6;fontStyle=5;overflow=hidden;" parent="5576LiCB81aaDjisihCb-41" vertex="1">
          <mxGeometry x="30" width="150" height="30" as="geometry">
            <mxRectangle width="150" height="30" as="alternateBounds" />
          </mxGeometry>
        </mxCell>
        <mxCell id="5576LiCB81aaDjisihCb-44" value="" style="shape=tableRow;horizontal=0;startSize=0;swimlaneHead=0;swimlaneBody=0;fillColor=none;collapsible=0;dropTarget=0;points=[[0,0.5],[1,0.5]];portConstraint=eastwest;top=0;left=0;right=0;bottom=0;" parent="5576LiCB81aaDjisihCb-40" vertex="1">
          <mxGeometry y="60" width="180" height="30" as="geometry" />
        </mxCell>
        <mxCell id="5576LiCB81aaDjisihCb-45" value="" style="shape=partialRectangle;connectable=0;fillColor=none;top=0;left=0;bottom=0;right=0;editable=1;overflow=hidden;" parent="5576LiCB81aaDjisihCb-44" vertex="1">
          <mxGeometry width="30" height="30" as="geometry">
            <mxRectangle width="30" height="30" as="alternateBounds" />
          </mxGeometry>
        </mxCell>
        <mxCell id="5576LiCB81aaDjisihCb-46" value="" style="shape=partialRectangle;connectable=0;fillColor=none;top=0;left=0;bottom=0;right=0;align=left;spacingLeft=6;overflow=hidden;" parent="5576LiCB81aaDjisihCb-44" vertex="1">
          <mxGeometry x="30" width="150" height="30" as="geometry">
            <mxRectangle width="150" height="30" as="alternateBounds" />
          </mxGeometry>
        </mxCell>
        <mxCell id="5576LiCB81aaDjisihCb-47" value="" style="shape=tableRow;horizontal=0;startSize=0;swimlaneHead=0;swimlaneBody=0;fillColor=none;collapsible=0;dropTarget=0;points=[[0,0.5],[1,0.5]];portConstraint=eastwest;top=0;left=0;right=0;bottom=0;" parent="5576LiCB81aaDjisihCb-40" vertex="1">
          <mxGeometry y="90" width="180" height="30" as="geometry" />
        </mxCell>
        <mxCell id="5576LiCB81aaDjisihCb-48" value="" style="shape=partialRectangle;connectable=0;fillColor=none;top=0;left=0;bottom=0;right=0;editable=1;overflow=hidden;" parent="5576LiCB81aaDjisihCb-47" vertex="1">
          <mxGeometry width="30" height="30" as="geometry">
            <mxRectangle width="30" height="30" as="alternateBounds" />
          </mxGeometry>
        </mxCell>
        <mxCell id="5576LiCB81aaDjisihCb-49" value="" style="shape=partialRectangle;connectable=0;fillColor=none;top=0;left=0;bottom=0;right=0;align=left;spacingLeft=6;overflow=hidden;" parent="5576LiCB81aaDjisihCb-47" vertex="1">
          <mxGeometry x="30" width="150" height="30" as="geometry">
            <mxRectangle width="150" height="30" as="alternateBounds" />
          </mxGeometry>
        </mxCell>
        <mxCell id="5576LiCB81aaDjisihCb-50" value="" style="shape=tableRow;horizontal=0;startSize=0;swimlaneHead=0;swimlaneBody=0;fillColor=none;collapsible=0;dropTarget=0;points=[[0,0.5],[1,0.5]];portConstraint=eastwest;top=0;left=0;right=0;bottom=0;" parent="5576LiCB81aaDjisihCb-40" vertex="1">
          <mxGeometry y="120" width="180" height="30" as="geometry" />
        </mxCell>
        <mxCell id="5576LiCB81aaDjisihCb-51" value="" style="shape=partialRectangle;connectable=0;fillColor=none;top=0;left=0;bottom=0;right=0;editable=1;overflow=hidden;" parent="5576LiCB81aaDjisihCb-50" vertex="1">
          <mxGeometry width="30" height="30" as="geometry">
            <mxRectangle width="30" height="30" as="alternateBounds" />
          </mxGeometry>
        </mxCell>
        <mxCell id="5576LiCB81aaDjisihCb-52" value="" style="shape=partialRectangle;connectable=0;fillColor=none;top=0;left=0;bottom=0;right=0;align=left;spacingLeft=6;overflow=hidden;" parent="5576LiCB81aaDjisihCb-50" vertex="1">
          <mxGeometry x="30" width="150" height="30" as="geometry">
            <mxRectangle width="150" height="30" as="alternateBounds" />
          </mxGeometry>
        </mxCell>
        <mxCell id="5576LiCB81aaDjisihCb-66" value="Account" style="shape=table;startSize=30;container=1;collapsible=1;childLayout=tableLayout;fixedRows=1;rowLines=0;fontStyle=1;align=center;resizeLast=1;" parent="1" vertex="1">
          <mxGeometry x="70" y="100" width="200" height="260" as="geometry" />
        </mxCell>
        <mxCell id="5576LiCB81aaDjisihCb-67" value="" style="shape=tableRow;horizontal=0;startSize=0;swimlaneHead=0;swimlaneBody=0;fillColor=none;collapsible=0;dropTarget=0;points=[[0,0.5],[1,0.5]];portConstraint=eastwest;top=0;left=0;right=0;bottom=1;" parent="5576LiCB81aaDjisihCb-66" vertex="1">
          <mxGeometry y="30" width="200" height="30" as="geometry" />
        </mxCell>
        <mxCell id="5576LiCB81aaDjisihCb-68" value="PK" style="shape=partialRectangle;connectable=0;fillColor=none;top=0;left=0;bottom=0;right=0;fontStyle=1;overflow=hidden;" parent="5576LiCB81aaDjisihCb-67" vertex="1">
          <mxGeometry width="30" height="30" as="geometry">
            <mxRectangle width="30" height="30" as="alternateBounds" />
          </mxGeometry>
        </mxCell>
        <mxCell id="5576LiCB81aaDjisihCb-69" value="account" style="shape=partialRectangle;connectable=0;fillColor=none;top=0;left=0;bottom=0;right=0;align=left;spacingLeft=6;fontStyle=5;overflow=hidden;" parent="5576LiCB81aaDjisihCb-67" vertex="1">
          <mxGeometry x="30" width="170" height="30" as="geometry">
            <mxRectangle width="170" height="30" as="alternateBounds" />
          </mxGeometry>
        </mxCell>
        <mxCell id="5576LiCB81aaDjisihCb-70" value="" style="shape=tableRow;horizontal=0;startSize=0;swimlaneHead=0;swimlaneBody=0;fillColor=none;collapsible=0;dropTarget=0;points=[[0,0.5],[1,0.5]];portConstraint=eastwest;top=0;left=0;right=0;bottom=0;" parent="5576LiCB81aaDjisihCb-66" vertex="1">
          <mxGeometry y="60" width="200" height="30" as="geometry" />
        </mxCell>
        <mxCell id="5576LiCB81aaDjisihCb-71" value="" style="shape=partialRectangle;connectable=0;fillColor=none;top=0;left=0;bottom=0;right=0;editable=1;overflow=hidden;" parent="5576LiCB81aaDjisihCb-70" vertex="1">
          <mxGeometry width="30" height="30" as="geometry">
            <mxRectangle width="30" height="30" as="alternateBounds" />
          </mxGeometry>
        </mxCell>
        <mxCell id="5576LiCB81aaDjisihCb-72" value="" style="shape=partialRectangle;connectable=0;fillColor=none;top=0;left=0;bottom=0;right=0;align=left;spacingLeft=6;overflow=hidden;" parent="5576LiCB81aaDjisihCb-70" vertex="1">
          <mxGeometry x="30" width="170" height="30" as="geometry">
            <mxRectangle width="170" height="30" as="alternateBounds" />
          </mxGeometry>
        </mxCell>
        <mxCell id="5576LiCB81aaDjisihCb-73" value="" style="shape=tableRow;horizontal=0;startSize=0;swimlaneHead=0;swimlaneBody=0;fillColor=none;collapsible=0;dropTarget=0;points=[[0,0.5],[1,0.5]];portConstraint=eastwest;top=0;left=0;right=0;bottom=0;" parent="5576LiCB81aaDjisihCb-66" vertex="1">
          <mxGeometry y="90" width="200" height="30" as="geometry" />
        </mxCell>
        <mxCell id="5576LiCB81aaDjisihCb-74" value="" style="shape=partialRectangle;connectable=0;fillColor=none;top=0;left=0;bottom=0;right=0;editable=1;overflow=hidden;" parent="5576LiCB81aaDjisihCb-73" vertex="1">
          <mxGeometry width="30" height="30" as="geometry">
            <mxRectangle width="30" height="30" as="alternateBounds" />
          </mxGeometry>
        </mxCell>
        <mxCell id="5576LiCB81aaDjisihCb-75" value="" style="shape=partialRectangle;connectable=0;fillColor=none;top=0;left=0;bottom=0;right=0;align=left;spacingLeft=6;overflow=hidden;" parent="5576LiCB81aaDjisihCb-73" vertex="1">
          <mxGeometry x="30" width="170" height="30" as="geometry">
            <mxRectangle width="170" height="30" as="alternateBounds" />
          </mxGeometry>
        </mxCell>
        <mxCell id="5576LiCB81aaDjisihCb-76" value="" style="shape=tableRow;horizontal=0;startSize=0;swimlaneHead=0;swimlaneBody=0;fillColor=none;collapsible=0;dropTarget=0;points=[[0,0.5],[1,0.5]];portConstraint=eastwest;top=0;left=0;right=0;bottom=0;" parent="5576LiCB81aaDjisihCb-66" vertex="1">
          <mxGeometry y="120" width="200" height="30" as="geometry" />
        </mxCell>
        <mxCell id="5576LiCB81aaDjisihCb-77" value="" style="shape=partialRectangle;connectable=0;fillColor=none;top=0;left=0;bottom=0;right=0;editable=1;overflow=hidden;" parent="5576LiCB81aaDjisihCb-76" vertex="1">
          <mxGeometry width="30" height="30" as="geometry">
            <mxRectangle width="30" height="30" as="alternateBounds" />
          </mxGeometry>
        </mxCell>
        <mxCell id="5576LiCB81aaDjisihCb-78" value="" style="shape=partialRectangle;connectable=0;fillColor=none;top=0;left=0;bottom=0;right=0;align=left;spacingLeft=6;overflow=hidden;" parent="5576LiCB81aaDjisihCb-76" vertex="1">
          <mxGeometry x="30" width="170" height="30" as="geometry">
            <mxRectangle width="170" height="30" as="alternateBounds" />
          </mxGeometry>
        </mxCell>
        <mxCell id="5576LiCB81aaDjisihCb-79" value="Adviser" style="shape=table;startSize=30;container=1;collapsible=1;childLayout=tableLayout;fixedRows=1;rowLines=0;fontStyle=1;align=center;resizeLast=1;" parent="1" vertex="1">
          <mxGeometry x="370" y="100" width="180" height="190" as="geometry" />
        </mxCell>
        <mxCell id="5576LiCB81aaDjisihCb-80" value="" style="shape=tableRow;horizontal=0;startSize=0;swimlaneHead=0;swimlaneBody=0;fillColor=none;collapsible=0;dropTarget=0;points=[[0,0.5],[1,0.5]];portConstraint=eastwest;top=0;left=0;right=0;bottom=1;" parent="5576LiCB81aaDjisihCb-79" vertex="1">
          <mxGeometry y="30" width="180" height="30" as="geometry" />
        </mxCell>
        <mxCell id="5576LiCB81aaDjisihCb-81" value="PK" style="shape=partialRectangle;connectable=0;fillColor=none;top=0;left=0;bottom=0;right=0;fontStyle=1;overflow=hidden;" parent="5576LiCB81aaDjisihCb-80" vertex="1">
          <mxGeometry width="30" height="30" as="geometry">
            <mxRectangle width="30" height="30" as="alternateBounds" />
          </mxGeometry>
        </mxCell>
        <mxCell id="5576LiCB81aaDjisihCb-82" value="id" style="shape=partialRectangle;connectable=0;fillColor=none;top=0;left=0;bottom=0;right=0;align=left;spacingLeft=6;fontStyle=5;overflow=hidden;" parent="5576LiCB81aaDjisihCb-80" vertex="1">
          <mxGeometry x="30" width="150" height="30" as="geometry">
            <mxRectangle width="150" height="30" as="alternateBounds" />
          </mxGeometry>
        </mxCell>
        <mxCell id="5576LiCB81aaDjisihCb-83" value="" style="shape=tableRow;horizontal=0;startSize=0;swimlaneHead=0;swimlaneBody=0;fillColor=none;collapsible=0;dropTarget=0;points=[[0,0.5],[1,0.5]];portConstraint=eastwest;top=0;left=0;right=0;bottom=0;" parent="5576LiCB81aaDjisihCb-79" vertex="1">
          <mxGeometry y="60" width="180" height="30" as="geometry" />
        </mxCell>
        <mxCell id="5576LiCB81aaDjisihCb-84" value="" style="shape=partialRectangle;connectable=0;fillColor=none;top=0;left=0;bottom=0;right=0;editable=1;overflow=hidden;" parent="5576LiCB81aaDjisihCb-83" vertex="1">
          <mxGeometry width="30" height="30" as="geometry">
            <mxRectangle width="30" height="30" as="alternateBounds" />
          </mxGeometry>
        </mxCell>
        <mxCell id="5576LiCB81aaDjisihCb-85" value="" style="shape=partialRectangle;connectable=0;fillColor=none;top=0;left=0;bottom=0;right=0;align=left;spacingLeft=6;overflow=hidden;" parent="5576LiCB81aaDjisihCb-83" vertex="1">
          <mxGeometry x="30" width="150" height="30" as="geometry">
            <mxRectangle width="150" height="30" as="alternateBounds" />
          </mxGeometry>
        </mxCell>
        <mxCell id="5576LiCB81aaDjisihCb-86" value="" style="shape=tableRow;horizontal=0;startSize=0;swimlaneHead=0;swimlaneBody=0;fillColor=none;collapsible=0;dropTarget=0;points=[[0,0.5],[1,0.5]];portConstraint=eastwest;top=0;left=0;right=0;bottom=0;" parent="5576LiCB81aaDjisihCb-79" vertex="1">
          <mxGeometry y="90" width="180" height="30" as="geometry" />
        </mxCell>
        <mxCell id="5576LiCB81aaDjisihCb-87" value="" style="shape=partialRectangle;connectable=0;fillColor=none;top=0;left=0;bottom=0;right=0;editable=1;overflow=hidden;" parent="5576LiCB81aaDjisihCb-86" vertex="1">
          <mxGeometry width="30" height="30" as="geometry">
            <mxRectangle width="30" height="30" as="alternateBounds" />
          </mxGeometry>
        </mxCell>
        <mxCell id="5576LiCB81aaDjisihCb-88" value="" style="shape=partialRectangle;connectable=0;fillColor=none;top=0;left=0;bottom=0;right=0;align=left;spacingLeft=6;overflow=hidden;" parent="5576LiCB81aaDjisihCb-86" vertex="1">
          <mxGeometry x="30" width="150" height="30" as="geometry">
            <mxRectangle width="150" height="30" as="alternateBounds" />
          </mxGeometry>
        </mxCell>
        <mxCell id="5576LiCB81aaDjisihCb-89" value="" style="shape=tableRow;horizontal=0;startSize=0;swimlaneHead=0;swimlaneBody=0;fillColor=none;collapsible=0;dropTarget=0;points=[[0,0.5],[1,0.5]];portConstraint=eastwest;top=0;left=0;right=0;bottom=0;" parent="5576LiCB81aaDjisihCb-79" vertex="1">
          <mxGeometry y="120" width="180" height="30" as="geometry" />
        </mxCell>
        <mxCell id="5576LiCB81aaDjisihCb-90" value="" style="shape=partialRectangle;connectable=0;fillColor=none;top=0;left=0;bottom=0;right=0;editable=1;overflow=hidden;" parent="5576LiCB81aaDjisihCb-89" vertex="1">
          <mxGeometry width="30" height="30" as="geometry">
            <mxRectangle width="30" height="30" as="alternateBounds" />
          </mxGeometry>
        </mxCell>
        <mxCell id="5576LiCB81aaDjisihCb-91" value="" style="shape=partialRectangle;connectable=0;fillColor=none;top=0;left=0;bottom=0;right=0;align=left;spacingLeft=6;overflow=hidden;" parent="5576LiCB81aaDjisihCb-89" vertex="1">
          <mxGeometry x="30" width="150" height="30" as="geometry">
            <mxRectangle width="150" height="30" as="alternateBounds" />
          </mxGeometry>
        </mxCell>
        <mxCell id="19n8g2fHAy3QC5Z84GbU-1" value=" &quot;account&quot;: string,&#xa; &quot;active&quot;: bool,&#xa; &quot;kuikpay&quot;: bool,&#xa; &quot;modeButtonCart&quot;: string,&#xa; &quot;storeName&quot;: string,&#xa; &quot;templateEmail&quot;: string,&#xa; &quot;textCancel&quot;: string,&#xa; &quot;textClientScheduled&quot;: string,&#xa; &quot;textJoinPersonal&quot;: string,&#xa; &quot;textNotifyClient&quot;: string,&#xa; &quot;textNotifyPersonal&quot;:string,&#xa; &quot;urlAdmin&quot;: string,&#xa; &quot;urlCss&quot;: string" style="text;strokeColor=none;fillColor=none;spacingLeft=4;spacingRight=4;overflow=hidden;rotatable=0;points=[[0,0.5],[1,0.5]];portConstraint=eastwest;fontSize=12;" parent="1" vertex="1">
          <mxGeometry x="100" y="160" width="170" height="190" as="geometry" />
        </mxCell>
        <mxCell id="HMKypMRJTneK0WcXsuU0-1" value=" &quot;id&quot;: uuid, &#xa;&quot;account&quot;: ACCOUNT,&#xa;&quot;email&quot;: string,&#xa; &quot;fullName&quot;: string,,&#xa; &quot;phone&quot;: string,&#xa;&quot;state&quot;: string,&#xa;&quot;deleted: bool,&#xa;&quot;schedule&quot;: SCHEDULE,&#xa;" style="text;strokeColor=none;fillColor=none;spacingLeft=4;spacingRight=4;overflow=hidden;rotatable=0;points=[[0,0.5],[1,0.5]];portConstraint=eastwest;fontSize=12;" parent="1" vertex="1">
          <mxGeometry x="405" y="165" width="145" height="125" as="geometry" />
        </mxCell>
        <mxCell id="0YIcI0eLv2QBZqYugsSO-1" value=" &quot;id&quot;: uuid, &#xa; &quot;fullName&quot;: string,,&#xa; &quot;phone&quot;: string,&#xa;&quot;adviser&quot;: ADVISER,&#xa;&quot;state&quot;: string,&#xa;&quot;createdAt&quot;,&#xa;&quot;meetAt&quot;,&#xa;&quot;finishedAt&quot;&#xa;" style="text;strokeColor=none;fillColor=none;spacingLeft=4;spacingRight=4;overflow=hidden;rotatable=0;points=[[0,0.5],[1,0.5]];portConstraint=eastwest;fontSize=12;" parent="1" vertex="1">
          <mxGeometry x="650" y="175" width="120" height="125" as="geometry" />
        </mxCell>
        <mxCell id="0YIcI0eLv2QBZqYugsSO-5" value="" style="edgeStyle=entityRelationEdgeStyle;fontSize=12;html=1;endArrow=ERoneToMany;startArrow=ERmandOne;rounded=0;exitX=1.006;exitY=0.389;exitDx=0;exitDy=0;exitPerimeter=0;entryX=0;entryY=0.5;entryDx=0;entryDy=0;" parent="1" source="19n8g2fHAy3QC5Z84GbU-1" target="5576LiCB81aaDjisihCb-83" edge="1">
          <mxGeometry width="100" height="100" relative="1" as="geometry">
            <mxPoint x="310" y="280" as="sourcePoint" />
            <mxPoint x="410" y="180" as="targetPoint" />
          </mxGeometry>
        </mxCell>
        <mxCell id="0YIcI0eLv2QBZqYugsSO-7" value="Guest" style="shape=table;startSize=30;container=1;collapsible=1;childLayout=tableLayout;fixedRows=1;rowLines=0;fontStyle=1;align=center;resizeLast=1;" parent="1" vertex="1">
          <mxGeometry x="380" y="320" width="145" height="120" as="geometry" />
        </mxCell>
        <mxCell id="0YIcI0eLv2QBZqYugsSO-8" value="" style="shape=tableRow;horizontal=0;startSize=0;swimlaneHead=0;swimlaneBody=0;fillColor=none;collapsible=0;dropTarget=0;points=[[0,0.5],[1,0.5]];portConstraint=eastwest;top=0;left=0;right=0;bottom=1;" parent="0YIcI0eLv2QBZqYugsSO-7" vertex="1">
          <mxGeometry y="30" width="145" height="30" as="geometry" />
        </mxCell>
        <mxCell id="0YIcI0eLv2QBZqYugsSO-9" value="PK" style="shape=partialRectangle;connectable=0;fillColor=none;top=0;left=0;bottom=0;right=0;fontStyle=1;overflow=hidden;" parent="0YIcI0eLv2QBZqYugsSO-8" vertex="1">
          <mxGeometry width="30" height="30" as="geometry">
            <mxRectangle width="30" height="30" as="alternateBounds" />
          </mxGeometry>
        </mxCell>
        <mxCell id="0YIcI0eLv2QBZqYugsSO-10" value="id" style="shape=partialRectangle;connectable=0;fillColor=none;top=0;left=0;bottom=0;right=0;align=left;spacingLeft=6;fontStyle=5;overflow=hidden;" parent="0YIcI0eLv2QBZqYugsSO-8" vertex="1">
          <mxGeometry x="30" width="115" height="30" as="geometry">
            <mxRectangle width="115" height="30" as="alternateBounds" />
          </mxGeometry>
        </mxCell>
        <mxCell id="0YIcI0eLv2QBZqYugsSO-11" value="" style="shape=tableRow;horizontal=0;startSize=0;swimlaneHead=0;swimlaneBody=0;fillColor=none;collapsible=0;dropTarget=0;points=[[0,0.5],[1,0.5]];portConstraint=eastwest;top=0;left=0;right=0;bottom=0;" parent="0YIcI0eLv2QBZqYugsSO-7" vertex="1">
          <mxGeometry y="60" width="145" height="30" as="geometry" />
        </mxCell>
        <mxCell id="0YIcI0eLv2QBZqYugsSO-12" value="" style="shape=partialRectangle;connectable=0;fillColor=none;top=0;left=0;bottom=0;right=0;editable=1;overflow=hidden;" parent="0YIcI0eLv2QBZqYugsSO-11" vertex="1">
          <mxGeometry width="30" height="30" as="geometry">
            <mxRectangle width="30" height="30" as="alternateBounds" />
          </mxGeometry>
        </mxCell>
        <mxCell id="0YIcI0eLv2QBZqYugsSO-13" value="" style="shape=partialRectangle;connectable=0;fillColor=none;top=0;left=0;bottom=0;right=0;align=left;spacingLeft=6;overflow=hidden;" parent="0YIcI0eLv2QBZqYugsSO-11" vertex="1">
          <mxGeometry x="30" width="115" height="30" as="geometry">
            <mxRectangle width="115" height="30" as="alternateBounds" />
          </mxGeometry>
        </mxCell>
        <mxCell id="0YIcI0eLv2QBZqYugsSO-14" value="" style="shape=tableRow;horizontal=0;startSize=0;swimlaneHead=0;swimlaneBody=0;fillColor=none;collapsible=0;dropTarget=0;points=[[0,0.5],[1,0.5]];portConstraint=eastwest;top=0;left=0;right=0;bottom=0;" parent="0YIcI0eLv2QBZqYugsSO-7" vertex="1">
          <mxGeometry y="90" width="145" height="30" as="geometry" />
        </mxCell>
        <mxCell id="0YIcI0eLv2QBZqYugsSO-15" value="" style="shape=partialRectangle;connectable=0;fillColor=none;top=0;left=0;bottom=0;right=0;editable=1;overflow=hidden;" parent="0YIcI0eLv2QBZqYugsSO-14" vertex="1">
          <mxGeometry width="30" height="30" as="geometry">
            <mxRectangle width="30" height="30" as="alternateBounds" />
          </mxGeometry>
        </mxCell>
        <mxCell id="0YIcI0eLv2QBZqYugsSO-16" value="" style="shape=partialRectangle;connectable=0;fillColor=none;top=0;left=0;bottom=0;right=0;align=left;spacingLeft=6;overflow=hidden;" parent="0YIcI0eLv2QBZqYugsSO-14" vertex="1">
          <mxGeometry x="30" width="115" height="30" as="geometry">
            <mxRectangle width="115" height="30" as="alternateBounds" />
          </mxGeometry>
        </mxCell>
        <mxCell id="0YIcI0eLv2QBZqYugsSO-20" value=" &quot;id&quot;: uuid, &#xa; &quot;fullName&quot;: string,&#xa;&quot;client&quot;: CLIENT" style="text;strokeColor=none;fillColor=none;spacingLeft=4;spacingRight=4;overflow=hidden;rotatable=0;points=[[0,0.5],[1,0.5]];portConstraint=eastwest;fontSize=12;" parent="1" vertex="1">
          <mxGeometry x="415" y="380" width="110" height="50" as="geometry" />
        </mxCell>
        <mxCell id="0YIcI0eLv2QBZqYugsSO-23" value="Schedule" style="shape=table;startSize=30;container=1;collapsible=1;childLayout=tableLayout;fixedRows=1;rowLines=0;fontStyle=1;align=center;resizeLast=1;" parent="1" vertex="1">
          <mxGeometry x="70" y="380" width="180" height="200" as="geometry" />
        </mxCell>
        <mxCell id="0YIcI0eLv2QBZqYugsSO-24" value="" style="shape=tableRow;horizontal=0;startSize=0;swimlaneHead=0;swimlaneBody=0;fillColor=none;collapsible=0;dropTarget=0;points=[[0,0.5],[1,0.5]];portConstraint=eastwest;top=0;left=0;right=0;bottom=1;" parent="0YIcI0eLv2QBZqYugsSO-23" vertex="1">
          <mxGeometry y="30" width="180" height="30" as="geometry" />
        </mxCell>
        <mxCell id="0YIcI0eLv2QBZqYugsSO-25" value="PK" style="shape=partialRectangle;connectable=0;fillColor=none;top=0;left=0;bottom=0;right=0;fontStyle=1;overflow=hidden;" parent="0YIcI0eLv2QBZqYugsSO-24" vertex="1">
          <mxGeometry width="30" height="30" as="geometry">
            <mxRectangle width="30" height="30" as="alternateBounds" />
          </mxGeometry>
        </mxCell>
        <mxCell id="0YIcI0eLv2QBZqYugsSO-26" value="id" style="shape=partialRectangle;connectable=0;fillColor=none;top=0;left=0;bottom=0;right=0;align=left;spacingLeft=6;fontStyle=5;overflow=hidden;" parent="0YIcI0eLv2QBZqYugsSO-24" vertex="1">
          <mxGeometry x="30" width="150" height="30" as="geometry">
            <mxRectangle width="150" height="30" as="alternateBounds" />
          </mxGeometry>
        </mxCell>
        <mxCell id="0YIcI0eLv2QBZqYugsSO-27" value="" style="shape=tableRow;horizontal=0;startSize=0;swimlaneHead=0;swimlaneBody=0;fillColor=none;collapsible=0;dropTarget=0;points=[[0,0.5],[1,0.5]];portConstraint=eastwest;top=0;left=0;right=0;bottom=0;" parent="0YIcI0eLv2QBZqYugsSO-23" vertex="1">
          <mxGeometry y="60" width="180" height="30" as="geometry" />
        </mxCell>
        <mxCell id="0YIcI0eLv2QBZqYugsSO-28" value="" style="shape=partialRectangle;connectable=0;fillColor=none;top=0;left=0;bottom=0;right=0;editable=1;overflow=hidden;" parent="0YIcI0eLv2QBZqYugsSO-27" vertex="1">
          <mxGeometry width="30" height="30" as="geometry">
            <mxRectangle width="30" height="30" as="alternateBounds" />
          </mxGeometry>
        </mxCell>
        <mxCell id="0YIcI0eLv2QBZqYugsSO-29" value="" style="shape=partialRectangle;connectable=0;fillColor=none;top=0;left=0;bottom=0;right=0;align=left;spacingLeft=6;overflow=hidden;" parent="0YIcI0eLv2QBZqYugsSO-27" vertex="1">
          <mxGeometry x="30" width="150" height="30" as="geometry">
            <mxRectangle width="150" height="30" as="alternateBounds" />
          </mxGeometry>
        </mxCell>
        <mxCell id="0YIcI0eLv2QBZqYugsSO-30" value="" style="shape=tableRow;horizontal=0;startSize=0;swimlaneHead=0;swimlaneBody=0;fillColor=none;collapsible=0;dropTarget=0;points=[[0,0.5],[1,0.5]];portConstraint=eastwest;top=0;left=0;right=0;bottom=0;" parent="0YIcI0eLv2QBZqYugsSO-23" vertex="1">
          <mxGeometry y="90" width="180" height="30" as="geometry" />
        </mxCell>
        <mxCell id="0YIcI0eLv2QBZqYugsSO-31" value="" style="shape=partialRectangle;connectable=0;fillColor=none;top=0;left=0;bottom=0;right=0;editable=1;overflow=hidden;" parent="0YIcI0eLv2QBZqYugsSO-30" vertex="1">
          <mxGeometry width="30" height="30" as="geometry">
            <mxRectangle width="30" height="30" as="alternateBounds" />
          </mxGeometry>
        </mxCell>
        <mxCell id="0YIcI0eLv2QBZqYugsSO-32" value="" style="shape=partialRectangle;connectable=0;fillColor=none;top=0;left=0;bottom=0;right=0;align=left;spacingLeft=6;overflow=hidden;" parent="0YIcI0eLv2QBZqYugsSO-30" vertex="1">
          <mxGeometry x="30" width="150" height="30" as="geometry">
            <mxRectangle width="150" height="30" as="alternateBounds" />
          </mxGeometry>
        </mxCell>
        <mxCell id="0YIcI0eLv2QBZqYugsSO-33" value="" style="shape=tableRow;horizontal=0;startSize=0;swimlaneHead=0;swimlaneBody=0;fillColor=none;collapsible=0;dropTarget=0;points=[[0,0.5],[1,0.5]];portConstraint=eastwest;top=0;left=0;right=0;bottom=0;" parent="0YIcI0eLv2QBZqYugsSO-23" vertex="1">
          <mxGeometry y="120" width="180" height="30" as="geometry" />
        </mxCell>
        <mxCell id="0YIcI0eLv2QBZqYugsSO-34" value="" style="shape=partialRectangle;connectable=0;fillColor=none;top=0;left=0;bottom=0;right=0;editable=1;overflow=hidden;" parent="0YIcI0eLv2QBZqYugsSO-33" vertex="1">
          <mxGeometry width="30" height="30" as="geometry">
            <mxRectangle width="30" height="30" as="alternateBounds" />
          </mxGeometry>
        </mxCell>
        <mxCell id="0YIcI0eLv2QBZqYugsSO-35" value="" style="shape=partialRectangle;connectable=0;fillColor=none;top=0;left=0;bottom=0;right=0;align=left;spacingLeft=6;overflow=hidden;" parent="0YIcI0eLv2QBZqYugsSO-33" vertex="1">
          <mxGeometry x="30" width="150" height="30" as="geometry">
            <mxRectangle width="150" height="30" as="alternateBounds" />
          </mxGeometry>
        </mxCell>
        <mxCell id="0YIcI0eLv2QBZqYugsSO-36" value=" &quot;id&quot;: uuid, &#xa;&quot;events&quot;: {&#xa;    &quot;day&quot;: string,&#xa;    &quot;interval&quot;: {&#xa;        &quot;dayEnd: string,&#xa;        &quot;dayInit&quot;:string&#xa;    }[]&#xa; }[],&#xa; &quot;timezone&quot;: object" style="text;strokeColor=none;fillColor=none;spacingLeft=4;spacingRight=4;overflow=hidden;rotatable=0;points=[[0,0.5],[1,0.5]];portConstraint=eastwest;fontSize=12;" parent="1" vertex="1">
          <mxGeometry x="105" y="440" width="135" height="150" as="geometry" />
        </mxCell>
        <mxCell id="0YIcI0eLv2QBZqYugsSO-37" value="" style="edgeStyle=entityRelationEdgeStyle;fontSize=12;html=1;endArrow=ERone;endFill=1;rounded=0;exitX=1;exitY=0.5;exitDx=0;exitDy=0;" parent="1" source="0YIcI0eLv2QBZqYugsSO-27" edge="1">
          <mxGeometry width="100" height="100" relative="1" as="geometry">
            <mxPoint x="280" y="350" as="sourcePoint" />
            <mxPoint x="370" y="280" as="targetPoint" />
          </mxGeometry>
        </mxCell>
        <mxCell id="0YIcI0eLv2QBZqYugsSO-38" value="" style="edgeStyle=entityRelationEdgeStyle;fontSize=12;html=1;endArrow=ERoneToMany;startArrow=ERzeroToOne;rounded=0;entryX=0;entryY=0.5;entryDx=0;entryDy=0;" parent="1" target="5576LiCB81aaDjisihCb-41" edge="1">
          <mxGeometry width="100" height="100" relative="1" as="geometry">
            <mxPoint x="550" y="220" as="sourcePoint" />
            <mxPoint x="650" y="120" as="targetPoint" />
          </mxGeometry>
        </mxCell>
        <mxCell id="0YIcI0eLv2QBZqYugsSO-39" value="" style="edgeStyle=entityRelationEdgeStyle;fontSize=12;html=1;endArrow=ERzeroToMany;startArrow=ERmandOne;rounded=0;entryX=1;entryY=0.5;entryDx=0;entryDy=0;exitX=0;exitY=0.133;exitDx=0;exitDy=0;exitPerimeter=0;" parent="1" source="5576LiCB81aaDjisihCb-50" target="0YIcI0eLv2QBZqYugsSO-8" edge="1">
          <mxGeometry width="100" height="100" relative="1" as="geometry">
            <mxPoint x="530" y="480" as="sourcePoint" />
            <mxPoint x="630" y="380" as="targetPoint" />
          </mxGeometry>
        </mxCell>
        <mxCell id="kCmly_sao7Lm9UIC0Lj9-1" value="Rules" style="shape=table;startSize=30;container=1;collapsible=1;childLayout=tableLayout;fixedRows=1;rowLines=0;fontStyle=1;align=center;resizeLast=1;rounded=0;labelBackgroundColor=default;fontFamily=Helvetica;fontSize=12;fontColor=#1A1A1A;strokeColor=#c0c0c0;fillColor=none;gradientColor=none;html=1;" vertex="1" parent="1">
          <mxGeometry x="70" y="600" width="180" height="160" as="geometry" />
        </mxCell>
        <mxCell id="kCmly_sao7Lm9UIC0Lj9-2" value="" style="shape=tableRow;horizontal=0;startSize=0;swimlaneHead=0;swimlaneBody=0;fillColor=none;collapsible=0;dropTarget=0;points=[[0,0.5],[1,0.5]];portConstraint=eastwest;top=0;left=0;right=0;bottom=1;rounded=0;labelBackgroundColor=default;fontFamily=Helvetica;fontSize=12;fontColor=#1A1A1A;strokeColor=#c0c0c0;html=1;" vertex="1" parent="kCmly_sao7Lm9UIC0Lj9-1">
          <mxGeometry y="30" width="180" height="30" as="geometry" />
        </mxCell>
        <mxCell id="kCmly_sao7Lm9UIC0Lj9-3" value="PK" style="shape=partialRectangle;connectable=0;fillColor=none;top=0;left=0;bottom=0;right=0;fontStyle=1;overflow=hidden;rounded=0;labelBackgroundColor=default;fontFamily=Helvetica;fontSize=12;fontColor=#1A1A1A;strokeColor=#c0c0c0;html=1;" vertex="1" parent="kCmly_sao7Lm9UIC0Lj9-2">
          <mxGeometry width="30" height="30" as="geometry">
            <mxRectangle width="30" height="30" as="alternateBounds" />
          </mxGeometry>
        </mxCell>
        <mxCell id="kCmly_sao7Lm9UIC0Lj9-4" value="UniqueID" style="shape=partialRectangle;connectable=0;fillColor=none;top=0;left=0;bottom=0;right=0;align=left;spacingLeft=6;fontStyle=5;overflow=hidden;rounded=0;labelBackgroundColor=default;fontFamily=Helvetica;fontSize=12;fontColor=#1A1A1A;strokeColor=#c0c0c0;html=1;" vertex="1" parent="kCmly_sao7Lm9UIC0Lj9-2">
          <mxGeometry x="30" width="150" height="30" as="geometry">
            <mxRectangle width="150" height="30" as="alternateBounds" />
          </mxGeometry>
        </mxCell>
        <mxCell id="kCmly_sao7Lm9UIC0Lj9-5" value="" style="shape=tableRow;horizontal=0;startSize=0;swimlaneHead=0;swimlaneBody=0;fillColor=none;collapsible=0;dropTarget=0;points=[[0,0.5],[1,0.5]];portConstraint=eastwest;top=0;left=0;right=0;bottom=0;rounded=0;labelBackgroundColor=default;fontFamily=Helvetica;fontSize=12;fontColor=#1A1A1A;strokeColor=#c0c0c0;html=1;" vertex="1" parent="kCmly_sao7Lm9UIC0Lj9-1">
          <mxGeometry y="60" width="180" height="30" as="geometry" />
        </mxCell>
        <mxCell id="kCmly_sao7Lm9UIC0Lj9-6" value="" style="shape=partialRectangle;connectable=0;fillColor=none;top=0;left=0;bottom=0;right=0;editable=1;overflow=hidden;rounded=0;labelBackgroundColor=default;fontFamily=Helvetica;fontSize=12;fontColor=#1A1A1A;strokeColor=#c0c0c0;html=1;" vertex="1" parent="kCmly_sao7Lm9UIC0Lj9-5">
          <mxGeometry width="30" height="30" as="geometry">
            <mxRectangle width="30" height="30" as="alternateBounds" />
          </mxGeometry>
        </mxCell>
        <mxCell id="kCmly_sao7Lm9UIC0Lj9-7" value="" style="shape=partialRectangle;connectable=0;fillColor=none;top=0;left=0;bottom=0;right=0;align=left;spacingLeft=6;overflow=hidden;rounded=0;labelBackgroundColor=default;fontFamily=Helvetica;fontSize=12;fontColor=#1A1A1A;strokeColor=#c0c0c0;html=1;" vertex="1" parent="kCmly_sao7Lm9UIC0Lj9-5">
          <mxGeometry x="30" width="150" height="30" as="geometry">
            <mxRectangle width="150" height="30" as="alternateBounds" />
          </mxGeometry>
        </mxCell>
        <mxCell id="kCmly_sao7Lm9UIC0Lj9-8" value="" style="shape=tableRow;horizontal=0;startSize=0;swimlaneHead=0;swimlaneBody=0;fillColor=none;collapsible=0;dropTarget=0;points=[[0,0.5],[1,0.5]];portConstraint=eastwest;top=0;left=0;right=0;bottom=0;rounded=0;labelBackgroundColor=default;fontFamily=Helvetica;fontSize=12;fontColor=#1A1A1A;strokeColor=#c0c0c0;html=1;" vertex="1" parent="kCmly_sao7Lm9UIC0Lj9-1">
          <mxGeometry y="90" width="180" height="30" as="geometry" />
        </mxCell>
        <mxCell id="kCmly_sao7Lm9UIC0Lj9-9" value="" style="shape=partialRectangle;connectable=0;fillColor=none;top=0;left=0;bottom=0;right=0;editable=1;overflow=hidden;rounded=0;labelBackgroundColor=default;fontFamily=Helvetica;fontSize=12;fontColor=#1A1A1A;strokeColor=#c0c0c0;html=1;" vertex="1" parent="kCmly_sao7Lm9UIC0Lj9-8">
          <mxGeometry width="30" height="30" as="geometry">
            <mxRectangle width="30" height="30" as="alternateBounds" />
          </mxGeometry>
        </mxCell>
        <mxCell id="kCmly_sao7Lm9UIC0Lj9-10" value="" style="shape=partialRectangle;connectable=0;fillColor=none;top=0;left=0;bottom=0;right=0;align=left;spacingLeft=6;overflow=hidden;rounded=0;labelBackgroundColor=default;fontFamily=Helvetica;fontSize=12;fontColor=#1A1A1A;strokeColor=#c0c0c0;html=1;" vertex="1" parent="kCmly_sao7Lm9UIC0Lj9-8">
          <mxGeometry x="30" width="150" height="30" as="geometry">
            <mxRectangle width="150" height="30" as="alternateBounds" />
          </mxGeometry>
        </mxCell>
        <mxCell id="kCmly_sao7Lm9UIC0Lj9-11" value="" style="shape=tableRow;horizontal=0;startSize=0;swimlaneHead=0;swimlaneBody=0;fillColor=none;collapsible=0;dropTarget=0;points=[[0,0.5],[1,0.5]];portConstraint=eastwest;top=0;left=0;right=0;bottom=0;rounded=0;labelBackgroundColor=default;fontFamily=Helvetica;fontSize=12;fontColor=#1A1A1A;strokeColor=#c0c0c0;html=1;" vertex="1" parent="kCmly_sao7Lm9UIC0Lj9-1">
          <mxGeometry y="120" width="180" height="30" as="geometry" />
        </mxCell>
        <mxCell id="kCmly_sao7Lm9UIC0Lj9-12" value="" style="shape=partialRectangle;connectable=0;fillColor=none;top=0;left=0;bottom=0;right=0;editable=1;overflow=hidden;rounded=0;labelBackgroundColor=default;fontFamily=Helvetica;fontSize=12;fontColor=#1A1A1A;strokeColor=#c0c0c0;html=1;" vertex="1" parent="kCmly_sao7Lm9UIC0Lj9-11">
          <mxGeometry width="30" height="30" as="geometry">
            <mxRectangle width="30" height="30" as="alternateBounds" />
          </mxGeometry>
        </mxCell>
        <mxCell id="kCmly_sao7Lm9UIC0Lj9-13" value="" style="shape=partialRectangle;connectable=0;fillColor=none;top=0;left=0;bottom=0;right=0;align=left;spacingLeft=6;overflow=hidden;rounded=0;labelBackgroundColor=default;fontFamily=Helvetica;fontSize=12;fontColor=#1A1A1A;strokeColor=#c0c0c0;html=1;" vertex="1" parent="kCmly_sao7Lm9UIC0Lj9-11">
          <mxGeometry x="30" width="150" height="30" as="geometry">
            <mxRectangle width="150" height="30" as="alternateBounds" />
          </mxGeometry>
        </mxCell>
      </root>
    </mxGraphModel>
  </diagram>
  <diagram id="Ee5QI7P5FiQIAMpll02q" name="Services">
    <mxGraphModel dx="946" dy="679" grid="1" gridSize="10" guides="1" tooltips="1" connect="1" arrows="1" fold="1" page="1" pageScale="1" pageWidth="827" pageHeight="1169" math="0" shadow="0">
      <root>
        <mxCell id="0" />
        <mxCell id="1" parent="0" />
        <mxCell id="rPdN5RdmRwzYbBuSuwG1-38" value="" style="shape=table;startSize=0;container=1;collapsible=0;childLayout=tableLayout;rounded=0;labelBackgroundColor=default;fontFamily=Helvetica;fontSize=12;html=1;" vertex="1" parent="1">
          <mxGeometry x="70" y="200" width="600" height="200" as="geometry" />
        </mxCell>
        <mxCell id="rPdN5RdmRwzYbBuSuwG1-39" value="" style="shape=tableRow;horizontal=0;startSize=0;swimlaneHead=0;swimlaneBody=0;top=0;left=0;bottom=0;right=0;collapsible=0;dropTarget=0;fillColor=none;points=[[0,0.5],[1,0.5]];portConstraint=eastwest;rounded=0;labelBackgroundColor=default;fontFamily=Helvetica;fontSize=12;fontColor=#1A1A1A;strokeColor=#c0c0c0;html=1;" vertex="1" parent="rPdN5RdmRwzYbBuSuwG1-38">
          <mxGeometry width="600" height="40" as="geometry" />
        </mxCell>
        <mxCell id="rPdN5RdmRwzYbBuSuwG1-170" style="shape=partialRectangle;html=1;whiteSpace=wrap;connectable=0;overflow=hidden;fillColor=none;top=0;left=0;bottom=0;right=0;pointerEvents=1;rounded=0;labelBackgroundColor=default;fontFamily=Helvetica;fontSize=12;fontColor=#1A1A1A;strokeColor=#c0c0c0;" vertex="1" parent="rPdN5RdmRwzYbBuSuwG1-39">
          <mxGeometry width="60" height="40" as="geometry">
            <mxRectangle width="60" height="40" as="alternateBounds" />
          </mxGeometry>
        </mxCell>
        <mxCell id="rPdN5RdmRwzYbBuSuwG1-40" value="" style="shape=partialRectangle;html=1;whiteSpace=wrap;connectable=0;overflow=hidden;fillColor=none;top=0;left=0;bottom=0;right=0;pointerEvents=1;rounded=0;labelBackgroundColor=default;fontFamily=Helvetica;fontSize=12;fontColor=#1A1A1A;strokeColor=#c0c0c0;" vertex="1" parent="rPdN5RdmRwzYbBuSuwG1-39">
          <mxGeometry x="60" width="60" height="40" as="geometry">
            <mxRectangle width="60" height="40" as="alternateBounds" />
          </mxGeometry>
        </mxCell>
        <mxCell id="rPdN5RdmRwzYbBuSuwG1-41" value="" style="shape=partialRectangle;html=1;whiteSpace=wrap;connectable=0;overflow=hidden;fillColor=none;top=0;left=0;bottom=0;right=0;pointerEvents=1;rounded=0;labelBackgroundColor=default;fontFamily=Helvetica;fontSize=12;fontColor=#1A1A1A;strokeColor=#c0c0c0;" vertex="1" parent="rPdN5RdmRwzYbBuSuwG1-39">
          <mxGeometry x="120" width="60" height="40" as="geometry">
            <mxRectangle width="60" height="40" as="alternateBounds" />
          </mxGeometry>
        </mxCell>
        <mxCell id="rPdN5RdmRwzYbBuSuwG1-42" value="" style="shape=partialRectangle;html=1;whiteSpace=wrap;connectable=0;overflow=hidden;fillColor=none;top=0;left=0;bottom=0;right=0;pointerEvents=1;rounded=0;labelBackgroundColor=default;fontFamily=Helvetica;fontSize=12;fontColor=#1A1A1A;strokeColor=#c0c0c0;" vertex="1" parent="rPdN5RdmRwzYbBuSuwG1-39">
          <mxGeometry x="180" width="60" height="40" as="geometry">
            <mxRectangle width="60" height="40" as="alternateBounds" />
          </mxGeometry>
        </mxCell>
        <mxCell id="rPdN5RdmRwzYbBuSuwG1-43" value="" style="shape=partialRectangle;html=1;whiteSpace=wrap;connectable=0;overflow=hidden;fillColor=none;top=0;left=0;bottom=0;right=0;pointerEvents=1;rounded=0;labelBackgroundColor=default;fontFamily=Helvetica;fontSize=12;fontColor=#1A1A1A;strokeColor=#c0c0c0;" vertex="1" parent="rPdN5RdmRwzYbBuSuwG1-39">
          <mxGeometry x="240" width="60" height="40" as="geometry">
            <mxRectangle width="60" height="40" as="alternateBounds" />
          </mxGeometry>
        </mxCell>
        <mxCell id="rPdN5RdmRwzYbBuSuwG1-44" value="" style="shape=partialRectangle;html=1;whiteSpace=wrap;connectable=0;overflow=hidden;fillColor=none;top=0;left=0;bottom=0;right=0;pointerEvents=1;rounded=0;labelBackgroundColor=default;fontFamily=Helvetica;fontSize=12;fontColor=#1A1A1A;strokeColor=#c0c0c0;" vertex="1" parent="rPdN5RdmRwzYbBuSuwG1-39">
          <mxGeometry x="300" width="60" height="40" as="geometry">
            <mxRectangle width="60" height="40" as="alternateBounds" />
          </mxGeometry>
        </mxCell>
        <mxCell id="rPdN5RdmRwzYbBuSuwG1-45" value="" style="shape=partialRectangle;html=1;whiteSpace=wrap;connectable=0;overflow=hidden;fillColor=none;top=0;left=0;bottom=0;right=0;pointerEvents=1;rounded=0;labelBackgroundColor=default;fontFamily=Helvetica;fontSize=12;fontColor=#1A1A1A;strokeColor=#c0c0c0;" vertex="1" parent="rPdN5RdmRwzYbBuSuwG1-39">
          <mxGeometry x="360" width="60" height="40" as="geometry">
            <mxRectangle width="60" height="40" as="alternateBounds" />
          </mxGeometry>
        </mxCell>
        <mxCell id="rPdN5RdmRwzYbBuSuwG1-46" value="" style="shape=partialRectangle;html=1;whiteSpace=wrap;connectable=0;overflow=hidden;fillColor=none;top=0;left=0;bottom=0;right=0;pointerEvents=1;rounded=0;labelBackgroundColor=default;fontFamily=Helvetica;fontSize=12;fontColor=#1A1A1A;strokeColor=#c0c0c0;" vertex="1" parent="rPdN5RdmRwzYbBuSuwG1-39">
          <mxGeometry x="420" width="60" height="40" as="geometry">
            <mxRectangle width="60" height="40" as="alternateBounds" />
          </mxGeometry>
        </mxCell>
        <mxCell id="rPdN5RdmRwzYbBuSuwG1-47" value="" style="shape=partialRectangle;html=1;whiteSpace=wrap;connectable=0;overflow=hidden;fillColor=none;top=0;left=0;bottom=0;right=0;pointerEvents=1;rounded=0;labelBackgroundColor=default;fontFamily=Helvetica;fontSize=12;fontColor=#1A1A1A;strokeColor=#c0c0c0;" vertex="1" parent="rPdN5RdmRwzYbBuSuwG1-39">
          <mxGeometry x="480" width="60" height="40" as="geometry">
            <mxRectangle width="60" height="40" as="alternateBounds" />
          </mxGeometry>
        </mxCell>
        <mxCell id="rPdN5RdmRwzYbBuSuwG1-48" value="" style="shape=partialRectangle;html=1;whiteSpace=wrap;connectable=0;overflow=hidden;fillColor=none;top=0;left=0;bottom=0;right=0;pointerEvents=1;rounded=0;labelBackgroundColor=default;fontFamily=Helvetica;fontSize=12;fontColor=#1A1A1A;strokeColor=#c0c0c0;" vertex="1" parent="rPdN5RdmRwzYbBuSuwG1-39">
          <mxGeometry x="540" width="60" height="40" as="geometry">
            <mxRectangle width="60" height="40" as="alternateBounds" />
          </mxGeometry>
        </mxCell>
        <mxCell id="rPdN5RdmRwzYbBuSuwG1-50" value="" style="shape=tableRow;horizontal=0;startSize=0;swimlaneHead=0;swimlaneBody=0;top=0;left=0;bottom=0;right=0;collapsible=0;dropTarget=0;fillColor=none;points=[[0,0.5],[1,0.5]];portConstraint=eastwest;rounded=0;labelBackgroundColor=default;fontFamily=Helvetica;fontSize=12;fontColor=#1A1A1A;strokeColor=#c0c0c0;html=1;" vertex="1" parent="rPdN5RdmRwzYbBuSuwG1-38">
          <mxGeometry y="40" width="600" height="40" as="geometry" />
        </mxCell>
        <mxCell id="rPdN5RdmRwzYbBuSuwG1-171" style="shape=partialRectangle;html=1;whiteSpace=wrap;connectable=0;overflow=hidden;fillColor=none;top=0;left=0;bottom=0;right=0;pointerEvents=1;rounded=0;labelBackgroundColor=default;fontFamily=Helvetica;fontSize=12;fontColor=#1A1A1A;strokeColor=#c0c0c0;" vertex="1" parent="rPdN5RdmRwzYbBuSuwG1-50">
          <mxGeometry width="60" height="40" as="geometry">
            <mxRectangle width="60" height="40" as="alternateBounds" />
          </mxGeometry>
        </mxCell>
        <mxCell id="rPdN5RdmRwzYbBuSuwG1-51" value="" style="shape=partialRectangle;html=1;whiteSpace=wrap;connectable=0;overflow=hidden;fillColor=none;top=0;left=0;bottom=0;right=0;pointerEvents=1;rounded=0;labelBackgroundColor=default;fontFamily=Helvetica;fontSize=12;fontColor=#1A1A1A;strokeColor=#c0c0c0;" vertex="1" parent="rPdN5RdmRwzYbBuSuwG1-50">
          <mxGeometry x="60" width="60" height="40" as="geometry">
            <mxRectangle width="60" height="40" as="alternateBounds" />
          </mxGeometry>
        </mxCell>
        <mxCell id="rPdN5RdmRwzYbBuSuwG1-52" value="" style="shape=partialRectangle;html=1;whiteSpace=wrap;connectable=0;overflow=hidden;fillColor=none;top=0;left=0;bottom=0;right=0;pointerEvents=1;rounded=0;labelBackgroundColor=default;fontFamily=Helvetica;fontSize=12;fontColor=#1A1A1A;strokeColor=#c0c0c0;" vertex="1" parent="rPdN5RdmRwzYbBuSuwG1-50">
          <mxGeometry x="120" width="60" height="40" as="geometry">
            <mxRectangle width="60" height="40" as="alternateBounds" />
          </mxGeometry>
        </mxCell>
        <mxCell id="rPdN5RdmRwzYbBuSuwG1-53" value="" style="shape=partialRectangle;html=1;whiteSpace=wrap;connectable=0;overflow=hidden;fillColor=none;top=0;left=0;bottom=0;right=0;pointerEvents=1;rounded=0;labelBackgroundColor=default;fontFamily=Helvetica;fontSize=12;fontColor=#1A1A1A;strokeColor=#c0c0c0;" vertex="1" parent="rPdN5RdmRwzYbBuSuwG1-50">
          <mxGeometry x="180" width="60" height="40" as="geometry">
            <mxRectangle width="60" height="40" as="alternateBounds" />
          </mxGeometry>
        </mxCell>
        <mxCell id="rPdN5RdmRwzYbBuSuwG1-54" value="" style="shape=partialRectangle;html=1;whiteSpace=wrap;connectable=0;overflow=hidden;fillColor=none;top=0;left=0;bottom=0;right=0;pointerEvents=1;rounded=0;labelBackgroundColor=default;fontFamily=Helvetica;fontSize=12;fontColor=#1A1A1A;strokeColor=#c0c0c0;" vertex="1" parent="rPdN5RdmRwzYbBuSuwG1-50">
          <mxGeometry x="240" width="60" height="40" as="geometry">
            <mxRectangle width="60" height="40" as="alternateBounds" />
          </mxGeometry>
        </mxCell>
        <mxCell id="rPdN5RdmRwzYbBuSuwG1-55" value="" style="shape=partialRectangle;html=1;whiteSpace=wrap;connectable=0;overflow=hidden;fillColor=none;top=0;left=0;bottom=0;right=0;pointerEvents=1;rounded=0;labelBackgroundColor=default;fontFamily=Helvetica;fontSize=12;fontColor=#1A1A1A;strokeColor=#c0c0c0;" vertex="1" parent="rPdN5RdmRwzYbBuSuwG1-50">
          <mxGeometry x="300" width="60" height="40" as="geometry">
            <mxRectangle width="60" height="40" as="alternateBounds" />
          </mxGeometry>
        </mxCell>
        <mxCell id="rPdN5RdmRwzYbBuSuwG1-56" value="" style="shape=partialRectangle;html=1;whiteSpace=wrap;connectable=0;overflow=hidden;fillColor=none;top=0;left=0;bottom=0;right=0;pointerEvents=1;rounded=0;labelBackgroundColor=default;fontFamily=Helvetica;fontSize=12;fontColor=#1A1A1A;strokeColor=#c0c0c0;" vertex="1" parent="rPdN5RdmRwzYbBuSuwG1-50">
          <mxGeometry x="360" width="60" height="40" as="geometry">
            <mxRectangle width="60" height="40" as="alternateBounds" />
          </mxGeometry>
        </mxCell>
        <mxCell id="rPdN5RdmRwzYbBuSuwG1-57" value="" style="shape=partialRectangle;html=1;whiteSpace=wrap;connectable=0;overflow=hidden;fillColor=none;top=0;left=0;bottom=0;right=0;pointerEvents=1;rounded=0;labelBackgroundColor=default;fontFamily=Helvetica;fontSize=12;fontColor=#1A1A1A;strokeColor=#c0c0c0;" vertex="1" parent="rPdN5RdmRwzYbBuSuwG1-50">
          <mxGeometry x="420" width="60" height="40" as="geometry">
            <mxRectangle width="60" height="40" as="alternateBounds" />
          </mxGeometry>
        </mxCell>
        <mxCell id="rPdN5RdmRwzYbBuSuwG1-58" value="" style="shape=partialRectangle;html=1;whiteSpace=wrap;connectable=0;overflow=hidden;fillColor=none;top=0;left=0;bottom=0;right=0;pointerEvents=1;rounded=0;labelBackgroundColor=default;fontFamily=Helvetica;fontSize=12;fontColor=#1A1A1A;strokeColor=#c0c0c0;" vertex="1" parent="rPdN5RdmRwzYbBuSuwG1-50">
          <mxGeometry x="480" width="60" height="40" as="geometry">
            <mxRectangle width="60" height="40" as="alternateBounds" />
          </mxGeometry>
        </mxCell>
        <mxCell id="rPdN5RdmRwzYbBuSuwG1-59" value="" style="shape=partialRectangle;html=1;whiteSpace=wrap;connectable=0;overflow=hidden;fillColor=none;top=0;left=0;bottom=0;right=0;pointerEvents=1;rounded=0;labelBackgroundColor=default;fontFamily=Helvetica;fontSize=12;fontColor=#1A1A1A;strokeColor=#c0c0c0;" vertex="1" parent="rPdN5RdmRwzYbBuSuwG1-50">
          <mxGeometry x="540" width="60" height="40" as="geometry">
            <mxRectangle width="60" height="40" as="alternateBounds" />
          </mxGeometry>
        </mxCell>
        <mxCell id="rPdN5RdmRwzYbBuSuwG1-61" value="" style="shape=tableRow;horizontal=0;startSize=0;swimlaneHead=0;swimlaneBody=0;top=0;left=0;bottom=0;right=0;collapsible=0;dropTarget=0;fillColor=none;points=[[0,0.5],[1,0.5]];portConstraint=eastwest;rounded=0;labelBackgroundColor=default;fontFamily=Helvetica;fontSize=12;fontColor=#1A1A1A;strokeColor=#c0c0c0;html=1;" vertex="1" parent="rPdN5RdmRwzYbBuSuwG1-38">
          <mxGeometry y="80" width="600" height="40" as="geometry" />
        </mxCell>
        <mxCell id="rPdN5RdmRwzYbBuSuwG1-172" style="shape=partialRectangle;html=1;whiteSpace=wrap;connectable=0;overflow=hidden;fillColor=none;top=0;left=0;bottom=0;right=0;pointerEvents=1;rounded=0;labelBackgroundColor=default;fontFamily=Helvetica;fontSize=12;fontColor=#1A1A1A;strokeColor=#c0c0c0;" vertex="1" parent="rPdN5RdmRwzYbBuSuwG1-61">
          <mxGeometry width="60" height="40" as="geometry">
            <mxRectangle width="60" height="40" as="alternateBounds" />
          </mxGeometry>
        </mxCell>
        <mxCell id="rPdN5RdmRwzYbBuSuwG1-62" value="" style="shape=partialRectangle;html=1;whiteSpace=wrap;connectable=0;overflow=hidden;fillColor=none;top=0;left=0;bottom=0;right=0;pointerEvents=1;rounded=0;labelBackgroundColor=default;fontFamily=Helvetica;fontSize=12;fontColor=#1A1A1A;strokeColor=#c0c0c0;" vertex="1" parent="rPdN5RdmRwzYbBuSuwG1-61">
          <mxGeometry x="60" width="60" height="40" as="geometry">
            <mxRectangle width="60" height="40" as="alternateBounds" />
          </mxGeometry>
        </mxCell>
        <mxCell id="rPdN5RdmRwzYbBuSuwG1-63" value="" style="shape=partialRectangle;html=1;whiteSpace=wrap;connectable=0;overflow=hidden;fillColor=none;top=0;left=0;bottom=0;right=0;pointerEvents=1;rounded=0;labelBackgroundColor=default;fontFamily=Helvetica;fontSize=12;fontColor=#1A1A1A;strokeColor=#c0c0c0;" vertex="1" parent="rPdN5RdmRwzYbBuSuwG1-61">
          <mxGeometry x="120" width="60" height="40" as="geometry">
            <mxRectangle width="60" height="40" as="alternateBounds" />
          </mxGeometry>
        </mxCell>
        <mxCell id="rPdN5RdmRwzYbBuSuwG1-64" value="" style="shape=partialRectangle;html=1;whiteSpace=wrap;connectable=0;overflow=hidden;fillColor=none;top=0;left=0;bottom=0;right=0;pointerEvents=1;rounded=0;labelBackgroundColor=default;fontFamily=Helvetica;fontSize=12;fontColor=#1A1A1A;strokeColor=#c0c0c0;" vertex="1" parent="rPdN5RdmRwzYbBuSuwG1-61">
          <mxGeometry x="180" width="60" height="40" as="geometry">
            <mxRectangle width="60" height="40" as="alternateBounds" />
          </mxGeometry>
        </mxCell>
        <mxCell id="rPdN5RdmRwzYbBuSuwG1-65" value="" style="shape=partialRectangle;html=1;whiteSpace=wrap;connectable=0;overflow=hidden;fillColor=none;top=0;left=0;bottom=0;right=0;pointerEvents=1;rounded=0;labelBackgroundColor=default;fontFamily=Helvetica;fontSize=12;fontColor=#1A1A1A;strokeColor=#c0c0c0;" vertex="1" parent="rPdN5RdmRwzYbBuSuwG1-61">
          <mxGeometry x="240" width="60" height="40" as="geometry">
            <mxRectangle width="60" height="40" as="alternateBounds" />
          </mxGeometry>
        </mxCell>
        <mxCell id="rPdN5RdmRwzYbBuSuwG1-66" value="" style="shape=partialRectangle;html=1;whiteSpace=wrap;connectable=0;overflow=hidden;fillColor=none;top=0;left=0;bottom=0;right=0;pointerEvents=1;rounded=0;labelBackgroundColor=default;fontFamily=Helvetica;fontSize=12;fontColor=#1A1A1A;strokeColor=#c0c0c0;" vertex="1" parent="rPdN5RdmRwzYbBuSuwG1-61">
          <mxGeometry x="300" width="60" height="40" as="geometry">
            <mxRectangle width="60" height="40" as="alternateBounds" />
          </mxGeometry>
        </mxCell>
        <mxCell id="rPdN5RdmRwzYbBuSuwG1-67" value="" style="shape=partialRectangle;html=1;whiteSpace=wrap;connectable=0;overflow=hidden;fillColor=none;top=0;left=0;bottom=0;right=0;pointerEvents=1;rounded=0;labelBackgroundColor=default;fontFamily=Helvetica;fontSize=12;fontColor=#1A1A1A;strokeColor=#c0c0c0;" vertex="1" parent="rPdN5RdmRwzYbBuSuwG1-61">
          <mxGeometry x="360" width="60" height="40" as="geometry">
            <mxRectangle width="60" height="40" as="alternateBounds" />
          </mxGeometry>
        </mxCell>
        <mxCell id="rPdN5RdmRwzYbBuSuwG1-68" value="" style="shape=partialRectangle;html=1;whiteSpace=wrap;connectable=0;overflow=hidden;fillColor=none;top=0;left=0;bottom=0;right=0;pointerEvents=1;rounded=0;labelBackgroundColor=default;fontFamily=Helvetica;fontSize=12;fontColor=#1A1A1A;strokeColor=#c0c0c0;" vertex="1" parent="rPdN5RdmRwzYbBuSuwG1-61">
          <mxGeometry x="420" width="60" height="40" as="geometry">
            <mxRectangle width="60" height="40" as="alternateBounds" />
          </mxGeometry>
        </mxCell>
        <mxCell id="rPdN5RdmRwzYbBuSuwG1-69" value="" style="shape=partialRectangle;html=1;whiteSpace=wrap;connectable=0;overflow=hidden;fillColor=none;top=0;left=0;bottom=0;right=0;pointerEvents=1;rounded=0;labelBackgroundColor=default;fontFamily=Helvetica;fontSize=12;fontColor=#1A1A1A;strokeColor=#c0c0c0;" vertex="1" parent="rPdN5RdmRwzYbBuSuwG1-61">
          <mxGeometry x="480" width="60" height="40" as="geometry">
            <mxRectangle width="60" height="40" as="alternateBounds" />
          </mxGeometry>
        </mxCell>
        <mxCell id="rPdN5RdmRwzYbBuSuwG1-70" value="" style="shape=partialRectangle;html=1;whiteSpace=wrap;connectable=0;overflow=hidden;fillColor=none;top=0;left=0;bottom=0;right=0;pointerEvents=1;rounded=0;labelBackgroundColor=default;fontFamily=Helvetica;fontSize=12;fontColor=#1A1A1A;strokeColor=#c0c0c0;" vertex="1" parent="rPdN5RdmRwzYbBuSuwG1-61">
          <mxGeometry x="540" width="60" height="40" as="geometry">
            <mxRectangle width="60" height="40" as="alternateBounds" />
          </mxGeometry>
        </mxCell>
        <mxCell id="rPdN5RdmRwzYbBuSuwG1-72" value="" style="shape=tableRow;horizontal=0;startSize=0;swimlaneHead=0;swimlaneBody=0;top=0;left=0;bottom=0;right=0;collapsible=0;dropTarget=0;fillColor=none;points=[[0,0.5],[1,0.5]];portConstraint=eastwest;rounded=0;labelBackgroundColor=default;fontFamily=Helvetica;fontSize=12;fontColor=#1A1A1A;strokeColor=#c0c0c0;html=1;" vertex="1" parent="rPdN5RdmRwzYbBuSuwG1-38">
          <mxGeometry y="120" width="600" height="40" as="geometry" />
        </mxCell>
        <mxCell id="rPdN5RdmRwzYbBuSuwG1-173" style="shape=partialRectangle;html=1;whiteSpace=wrap;connectable=0;overflow=hidden;fillColor=none;top=0;left=0;bottom=0;right=0;pointerEvents=1;rounded=0;labelBackgroundColor=default;fontFamily=Helvetica;fontSize=12;fontColor=#1A1A1A;strokeColor=#c0c0c0;" vertex="1" parent="rPdN5RdmRwzYbBuSuwG1-72">
          <mxGeometry width="60" height="40" as="geometry">
            <mxRectangle width="60" height="40" as="alternateBounds" />
          </mxGeometry>
        </mxCell>
        <mxCell id="rPdN5RdmRwzYbBuSuwG1-73" value="" style="shape=partialRectangle;html=1;whiteSpace=wrap;connectable=0;overflow=hidden;fillColor=none;top=0;left=0;bottom=0;right=0;pointerEvents=1;rounded=0;labelBackgroundColor=default;fontFamily=Helvetica;fontSize=12;fontColor=#1A1A1A;strokeColor=#c0c0c0;" vertex="1" parent="rPdN5RdmRwzYbBuSuwG1-72">
          <mxGeometry x="60" width="60" height="40" as="geometry">
            <mxRectangle width="60" height="40" as="alternateBounds" />
          </mxGeometry>
        </mxCell>
        <mxCell id="rPdN5RdmRwzYbBuSuwG1-74" value="" style="shape=partialRectangle;html=1;whiteSpace=wrap;connectable=0;overflow=hidden;fillColor=none;top=0;left=0;bottom=0;right=0;pointerEvents=1;rounded=0;labelBackgroundColor=default;fontFamily=Helvetica;fontSize=12;fontColor=#1A1A1A;strokeColor=#c0c0c0;" vertex="1" parent="rPdN5RdmRwzYbBuSuwG1-72">
          <mxGeometry x="120" width="60" height="40" as="geometry">
            <mxRectangle width="60" height="40" as="alternateBounds" />
          </mxGeometry>
        </mxCell>
        <mxCell id="rPdN5RdmRwzYbBuSuwG1-75" value="" style="shape=partialRectangle;html=1;whiteSpace=wrap;connectable=0;overflow=hidden;fillColor=none;top=0;left=0;bottom=0;right=0;pointerEvents=1;rounded=0;labelBackgroundColor=default;fontFamily=Helvetica;fontSize=12;fontColor=#1A1A1A;strokeColor=#c0c0c0;" vertex="1" parent="rPdN5RdmRwzYbBuSuwG1-72">
          <mxGeometry x="180" width="60" height="40" as="geometry">
            <mxRectangle width="60" height="40" as="alternateBounds" />
          </mxGeometry>
        </mxCell>
        <mxCell id="rPdN5RdmRwzYbBuSuwG1-76" value="" style="shape=partialRectangle;html=1;whiteSpace=wrap;connectable=0;overflow=hidden;fillColor=none;top=0;left=0;bottom=0;right=0;pointerEvents=1;rounded=0;labelBackgroundColor=default;fontFamily=Helvetica;fontSize=12;fontColor=#1A1A1A;strokeColor=#c0c0c0;" vertex="1" parent="rPdN5RdmRwzYbBuSuwG1-72">
          <mxGeometry x="240" width="60" height="40" as="geometry">
            <mxRectangle width="60" height="40" as="alternateBounds" />
          </mxGeometry>
        </mxCell>
        <mxCell id="rPdN5RdmRwzYbBuSuwG1-77" value="" style="shape=partialRectangle;html=1;whiteSpace=wrap;connectable=0;overflow=hidden;fillColor=none;top=0;left=0;bottom=0;right=0;pointerEvents=1;rounded=0;labelBackgroundColor=default;fontFamily=Helvetica;fontSize=12;fontColor=#1A1A1A;strokeColor=#c0c0c0;" vertex="1" parent="rPdN5RdmRwzYbBuSuwG1-72">
          <mxGeometry x="300" width="60" height="40" as="geometry">
            <mxRectangle width="60" height="40" as="alternateBounds" />
          </mxGeometry>
        </mxCell>
        <mxCell id="rPdN5RdmRwzYbBuSuwG1-78" value="" style="shape=partialRectangle;html=1;whiteSpace=wrap;connectable=0;overflow=hidden;fillColor=none;top=0;left=0;bottom=0;right=0;pointerEvents=1;rounded=0;labelBackgroundColor=default;fontFamily=Helvetica;fontSize=12;fontColor=#1A1A1A;strokeColor=#c0c0c0;" vertex="1" parent="rPdN5RdmRwzYbBuSuwG1-72">
          <mxGeometry x="360" width="60" height="40" as="geometry">
            <mxRectangle width="60" height="40" as="alternateBounds" />
          </mxGeometry>
        </mxCell>
        <mxCell id="rPdN5RdmRwzYbBuSuwG1-79" value="" style="shape=partialRectangle;html=1;whiteSpace=wrap;connectable=0;overflow=hidden;fillColor=none;top=0;left=0;bottom=0;right=0;pointerEvents=1;rounded=0;labelBackgroundColor=default;fontFamily=Helvetica;fontSize=12;fontColor=#1A1A1A;strokeColor=#c0c0c0;" vertex="1" parent="rPdN5RdmRwzYbBuSuwG1-72">
          <mxGeometry x="420" width="60" height="40" as="geometry">
            <mxRectangle width="60" height="40" as="alternateBounds" />
          </mxGeometry>
        </mxCell>
        <mxCell id="rPdN5RdmRwzYbBuSuwG1-80" value="" style="shape=partialRectangle;html=1;whiteSpace=wrap;connectable=0;overflow=hidden;fillColor=none;top=0;left=0;bottom=0;right=0;pointerEvents=1;rounded=0;labelBackgroundColor=default;fontFamily=Helvetica;fontSize=12;fontColor=#1A1A1A;strokeColor=#c0c0c0;" vertex="1" parent="rPdN5RdmRwzYbBuSuwG1-72">
          <mxGeometry x="480" width="60" height="40" as="geometry">
            <mxRectangle width="60" height="40" as="alternateBounds" />
          </mxGeometry>
        </mxCell>
        <mxCell id="rPdN5RdmRwzYbBuSuwG1-81" value="" style="shape=partialRectangle;html=1;whiteSpace=wrap;connectable=0;overflow=hidden;fillColor=none;top=0;left=0;bottom=0;right=0;pointerEvents=1;rounded=0;labelBackgroundColor=default;fontFamily=Helvetica;fontSize=12;fontColor=#1A1A1A;strokeColor=#c0c0c0;" vertex="1" parent="rPdN5RdmRwzYbBuSuwG1-72">
          <mxGeometry x="540" width="60" height="40" as="geometry">
            <mxRectangle width="60" height="40" as="alternateBounds" />
          </mxGeometry>
        </mxCell>
        <mxCell id="rPdN5RdmRwzYbBuSuwG1-83" value="" style="shape=tableRow;horizontal=0;startSize=0;swimlaneHead=0;swimlaneBody=0;top=0;left=0;bottom=0;right=0;collapsible=0;dropTarget=0;fillColor=none;points=[[0,0.5],[1,0.5]];portConstraint=eastwest;rounded=0;labelBackgroundColor=default;fontFamily=Helvetica;fontSize=12;fontColor=#1A1A1A;strokeColor=#c0c0c0;html=1;" vertex="1" parent="rPdN5RdmRwzYbBuSuwG1-38">
          <mxGeometry y="160" width="600" height="40" as="geometry" />
        </mxCell>
        <mxCell id="rPdN5RdmRwzYbBuSuwG1-174" style="shape=partialRectangle;html=1;whiteSpace=wrap;connectable=0;overflow=hidden;fillColor=none;top=0;left=0;bottom=0;right=0;pointerEvents=1;rounded=0;labelBackgroundColor=default;fontFamily=Helvetica;fontSize=12;fontColor=#1A1A1A;strokeColor=#c0c0c0;" vertex="1" parent="rPdN5RdmRwzYbBuSuwG1-83">
          <mxGeometry width="60" height="40" as="geometry">
            <mxRectangle width="60" height="40" as="alternateBounds" />
          </mxGeometry>
        </mxCell>
        <mxCell id="rPdN5RdmRwzYbBuSuwG1-84" value="" style="shape=partialRectangle;html=1;whiteSpace=wrap;connectable=0;overflow=hidden;fillColor=none;top=0;left=0;bottom=0;right=0;pointerEvents=1;rounded=0;labelBackgroundColor=default;fontFamily=Helvetica;fontSize=12;fontColor=#1A1A1A;strokeColor=#c0c0c0;" vertex="1" parent="rPdN5RdmRwzYbBuSuwG1-83">
          <mxGeometry x="60" width="60" height="40" as="geometry">
            <mxRectangle width="60" height="40" as="alternateBounds" />
          </mxGeometry>
        </mxCell>
        <mxCell id="rPdN5RdmRwzYbBuSuwG1-85" value="" style="shape=partialRectangle;html=1;whiteSpace=wrap;connectable=0;overflow=hidden;fillColor=none;top=0;left=0;bottom=0;right=0;pointerEvents=1;rounded=0;labelBackgroundColor=default;fontFamily=Helvetica;fontSize=12;fontColor=#1A1A1A;strokeColor=#c0c0c0;" vertex="1" parent="rPdN5RdmRwzYbBuSuwG1-83">
          <mxGeometry x="120" width="60" height="40" as="geometry">
            <mxRectangle width="60" height="40" as="alternateBounds" />
          </mxGeometry>
        </mxCell>
        <mxCell id="rPdN5RdmRwzYbBuSuwG1-86" value="" style="shape=partialRectangle;html=1;whiteSpace=wrap;connectable=0;overflow=hidden;fillColor=none;top=0;left=0;bottom=0;right=0;pointerEvents=1;rounded=0;labelBackgroundColor=default;fontFamily=Helvetica;fontSize=12;fontColor=#1A1A1A;strokeColor=#c0c0c0;" vertex="1" parent="rPdN5RdmRwzYbBuSuwG1-83">
          <mxGeometry x="180" width="60" height="40" as="geometry">
            <mxRectangle width="60" height="40" as="alternateBounds" />
          </mxGeometry>
        </mxCell>
        <mxCell id="rPdN5RdmRwzYbBuSuwG1-87" value="" style="shape=partialRectangle;html=1;whiteSpace=wrap;connectable=0;overflow=hidden;fillColor=none;top=0;left=0;bottom=0;right=0;pointerEvents=1;rounded=0;labelBackgroundColor=default;fontFamily=Helvetica;fontSize=12;fontColor=#1A1A1A;strokeColor=#c0c0c0;" vertex="1" parent="rPdN5RdmRwzYbBuSuwG1-83">
          <mxGeometry x="240" width="60" height="40" as="geometry">
            <mxRectangle width="60" height="40" as="alternateBounds" />
          </mxGeometry>
        </mxCell>
        <mxCell id="rPdN5RdmRwzYbBuSuwG1-88" value="" style="shape=partialRectangle;html=1;whiteSpace=wrap;connectable=0;overflow=hidden;fillColor=none;top=0;left=0;bottom=0;right=0;pointerEvents=1;rounded=0;labelBackgroundColor=default;fontFamily=Helvetica;fontSize=12;fontColor=#1A1A1A;strokeColor=#c0c0c0;" vertex="1" parent="rPdN5RdmRwzYbBuSuwG1-83">
          <mxGeometry x="300" width="60" height="40" as="geometry">
            <mxRectangle width="60" height="40" as="alternateBounds" />
          </mxGeometry>
        </mxCell>
        <mxCell id="rPdN5RdmRwzYbBuSuwG1-89" value="" style="shape=partialRectangle;html=1;whiteSpace=wrap;connectable=0;overflow=hidden;fillColor=none;top=0;left=0;bottom=0;right=0;pointerEvents=1;rounded=0;labelBackgroundColor=default;fontFamily=Helvetica;fontSize=12;fontColor=#1A1A1A;strokeColor=#c0c0c0;" vertex="1" parent="rPdN5RdmRwzYbBuSuwG1-83">
          <mxGeometry x="360" width="60" height="40" as="geometry">
            <mxRectangle width="60" height="40" as="alternateBounds" />
          </mxGeometry>
        </mxCell>
        <mxCell id="rPdN5RdmRwzYbBuSuwG1-90" value="" style="shape=partialRectangle;html=1;whiteSpace=wrap;connectable=0;overflow=hidden;fillColor=none;top=0;left=0;bottom=0;right=0;pointerEvents=1;rounded=0;labelBackgroundColor=default;fontFamily=Helvetica;fontSize=12;fontColor=#1A1A1A;strokeColor=#c0c0c0;" vertex="1" parent="rPdN5RdmRwzYbBuSuwG1-83">
          <mxGeometry x="420" width="60" height="40" as="geometry">
            <mxRectangle width="60" height="40" as="alternateBounds" />
          </mxGeometry>
        </mxCell>
        <mxCell id="rPdN5RdmRwzYbBuSuwG1-91" value="" style="shape=partialRectangle;html=1;whiteSpace=wrap;connectable=0;overflow=hidden;fillColor=none;top=0;left=0;bottom=0;right=0;pointerEvents=1;rounded=0;labelBackgroundColor=default;fontFamily=Helvetica;fontSize=12;fontColor=#1A1A1A;strokeColor=#c0c0c0;" vertex="1" parent="rPdN5RdmRwzYbBuSuwG1-83">
          <mxGeometry x="480" width="60" height="40" as="geometry">
            <mxRectangle width="60" height="40" as="alternateBounds" />
          </mxGeometry>
        </mxCell>
        <mxCell id="rPdN5RdmRwzYbBuSuwG1-92" value="" style="shape=partialRectangle;html=1;whiteSpace=wrap;connectable=0;overflow=hidden;fillColor=none;top=0;left=0;bottom=0;right=0;pointerEvents=1;rounded=0;labelBackgroundColor=default;fontFamily=Helvetica;fontSize=12;fontColor=#1A1A1A;strokeColor=#c0c0c0;" vertex="1" parent="rPdN5RdmRwzYbBuSuwG1-83">
          <mxGeometry x="540" width="60" height="40" as="geometry">
            <mxRectangle width="60" height="40" as="alternateBounds" />
          </mxGeometry>
        </mxCell>
      </root>
    </mxGraphModel>
  </diagram>
</mxfile>
